<svg id="Capa_1" enable-background="new 0 0 512 512" height="512" viewBox="0 0 512 512" width="512" xmlns="http://www.w3.org/2000/svg"><g><path d="m497 30h-482c-8.284 0-15 6.716-15 15v422c0 8.284 6.716 15 15 15h482c8.284 0 15-6.716 15-15v-422c0-8.284-6.716-15-15-15zm-15 90h-60v-60h60zm-90-60v60h-362v-60zm-362 392v-302h452v302z"/><path d="m158.018 315.587h-1.696c.182-31.453.275-65.045-.114-69.72-.879-10.554-7.228-19.164-16.174-21.935-8.881-2.751-18.318.682-25.247 9.181-7.479 9.177-41.985 71.382-52.382 90.229-2.563 4.646-2.481 10.302.217 14.872s7.61 7.374 12.917 7.374h50.58c-.062 8.368-.125 16.388-.188 23.636-.071 8.284 6.586 15.057 14.87 15.129.044.001.087.001.132.001 8.224-.001 14.926-6.631 14.997-14.871.038-4.477.111-13.141.191-23.895h1.896c8.284 0 15-6.716 15-15 .001-8.285-6.715-15.001-14.999-15.001zm-31.701 0h-25.287c9.384-16.781 18.529-32.875 25.456-44.735-.007 12.259-.073 28.2-.169 44.735z"/><path d="m436.461 315.587h-1.697c.182-31.453.276-65.045-.114-69.72-.879-10.554-7.228-19.164-16.174-21.935-8.88-2.751-18.318.682-25.247 9.181-7.48 9.177-41.984 71.382-52.381 90.229-2.563 4.646-2.481 10.302.217 14.872s7.61 7.374 12.917 7.374h50.579c-.061 8.368-.125 16.388-.188 23.636-.071 8.284 6.586 15.057 14.87 15.129.044.001.088.001.132.001 8.223-.001 14.926-6.631 14.997-14.871.039-4.477.111-13.141.191-23.895h1.897c8.284 0 15-6.716 15-15 .001-8.285-6.715-15.001-14.999-15.001zm-31.702 0h-25.286c9.384-16.781 18.529-32.874 25.456-44.734-.008 12.259-.075 28.199-.17 44.734z"/><path d="m256 217.648c-29.214 0-52.982 23.767-52.982 52.981v60.742c0 29.214 23.768 52.981 52.982 52.981 29.215 0 52.982-23.767 52.982-52.981v-60.742c0-29.214-23.767-52.981-52.982-52.981zm22.982 113.723c0 12.672-10.31 22.981-22.982 22.981s-22.982-10.309-22.982-22.981v-60.742c0-12.672 10.31-22.981 22.982-22.981s22.982 10.309 22.982 22.981z"/></g></svg>