<svg id="Capa_1" enable-background="new 0 0 512.01 512.01" height="512" viewBox="0 0 512.01 512.01" width="512" xmlns="http://www.w3.org/2000/svg"><g><path d="m416.551 159.099c17.546-17.546 17.546-46.094 0-63.64-17.586-17.585-46.051-17.588-63.639 0-17.546 17.546-17.546 46.094 0 63.64 17.585 17.585 46.05 17.588 63.639 0zm-42.426-42.427c5.861-5.862 15.35-5.862 21.213 0 5.848 5.848 5.848 15.365 0 21.213-5.861 5.861-15.351 5.863-21.213 0-5.849-5.848-5.849-15.364 0-21.213z"/><path d="m427.158 360.625 21.213 21.213-42.427 42.426-92.257-92.256c52.425 9.252 106.868-7.208 145.289-45.629 64.388-64.388 64.394-168.952 0-233.345-64.39-64.391-168.953-64.391-233.345 0-38.422 38.422-54.882 92.865-45.629 145.29l-92.256-92.257 42.426-42.426 21.213 21.213 21.213-21.213-63.639-63.641-21.212 21.213 21.213 21.213-63.64 63.64 127.279 127.28-21.213 21.213-63.64-63.64-42.426 42.426-21.213-21.213-21.213 21.213 63.64 63.64 21.213-21.213-21.213-21.213 21.213-21.213 42.427 42.427-130.174 130.171v106.066h115v-42h42v-43h43v-42h33.365l3.016-3.03 42.284 42.284-21.213 21.213-21.213-21.213-21.213 21.213 63.64 63.64 21.213-21.213-21.213-21.213 42.427-42.426-63.546-63.546 21.164-21.262 127.233 127.233 63.64-63.64 21.213 21.213 21.213-21.213-63.64-63.64zm-257.158-5.615v42h-43v43h-42v42h-55v-63.64l190.337-190.337-3.559-9.128c-19.528-50.084-7.726-106.866 30.067-144.659 52.665-52.665 138.251-52.668 190.919 0 52.665 52.664 52.667 138.251 0 190.919-37.792 37.793-94.574 49.595-144.66 30.067l-9.15-3.568-63.056 63.346z"/></g></svg>